<svg viewBox="0 0 24 24" xmlns="http://www.w3.org/2000/svg"><path d="m21.435 11.5h-.38v-3.38a1.626 1.626 0 0 0 -1.62-1.62h-.63v-.38a1.625 1.625 0 0 0 -3.25 0v5.38h-7.11v-5.38a1.625 1.625 0 0 0 -3.25 0v.38h-.63a1.62 1.62 0 0 0 -1.62 1.62v3.38h-.38a.5.5 0 1 0 0 1h.38v3.37a1.622 1.622 0 0 0 1.62 1.63h.635v.37a1.625 1.625 0 1 0 3.25 0v-5.37h7.11v5.37a1.625 1.625 0 1 0 3.25 0v-.37h.63a1.628 1.628 0 0 0 1.62-1.63v-3.37h.38a.5.5 0 1 0 0-1zm-16.235 5h-.63a.625.625 0 0 1 -.62-.63v-7.75a.623.623 0 0 1 .62-.62h.63zm2.25 1.37a.634.634 0 0 1 -.63.63.625.625 0 0 1 -.62-.63v-11.75a.623.623 0 0 1 .62-.62.632.632 0 0 1 .63.62zm10.36 0a.625.625 0 1 1 -1.25 0v-11.75a.625.625 0 0 1 1.25 0zm2.25-2a.625.625 0 0 1 -.62.63h-.63v-9h.63a.623.623 0 0 1 .62.62z"/></svg>