<svg viewBox="0 0 72 72" xmlns="http://www.w3.org/2000/svg"><path d="m23.0578 18.5809c-5.5473 1.4382-11.4463 7.3962-11.4463 17.2575 0 6.83 4.4417 16.27 9.8122 21.4266 2.3817 2.29 4.947 3.735 7.3891 3.735a15.5438 15.5438 0 0 0 4.4076-.6478 9.5833 9.5833 0 0 1 5.5593 0 15.542 15.542 0 0 0 4.4075.6478c2.5584 0 5.2539-1.5874 7.7316-4.0706 5.2156-5.2224 9.47-14.4073 9.47-21.0911 0-9.8613-5.8991-15.8193-11.4461-17.2574a17.099 17.099 0 0 0 -8.23.4027 18.6582 18.6582 0 0 1 -7.8589.3369q-.0812-.0139-.1622-.0286" fill="none" stroke="#000" stroke-miterlimit="10" stroke-width="1.798"/><path d="m23.0578 18.5809c-5.5473 1.4382-11.4463 7.3962-11.4463 17.2575 0 6.83 4.4417 16.27 9.8122 21.4266 2.3817 2.29 4.947 3.735 7.3891 3.735a15.5438 15.5438 0 0 0 4.4076-.6478 9.5833 9.5833 0 0 1 5.5593 0 15.542 15.542 0 0 0 4.4075.6478c2.5584 0 5.2539-1.5874 7.7316-4.0706 5.2156-5.2224 9.47-14.4073 9.47-21.0911 0-9.8613-5.8991-15.8193-11.4461-17.2574a17.099 17.099 0 0 0 -8.23.4027 18.6582 18.6582 0 0 1 -7.8589.3369" fill="none" stroke="#000" stroke-miterlimit="10" stroke-width="1.798"/><path d="m34.95 18.9056a31.2788 31.2788 0 0 0 -.6807 3.7816c-.0863.7328-.1479 1.49-.1767 2.2681.3259.03.6629.0452 1.008.0452.36 0 .7108-.0164 1.0492-.0479.03-.7779.0972-1.534.189-2.2654a29.9339 29.9339 0 0 1 2.7475-9.2793 1.0275 1.0275 0 0 0 -1.8147-.9641 27.1067 27.1067 0 0 0 -1.5765 3.8583"/><path d="m19 12.4159a8.2358 8.2358 0 0 0 4.65-.7172c4.0437-2.003 10.5641.3772 12.1166 6.1578a4.5612 4.5612 0 0 0 -2.7266 1.3221c-2.8622 3.0303-11.3907 2.9086-14.04-6.7627z" fill="none" stroke="#000" stroke-miterlimit="10" stroke-width="1.5536"/></svg>