<svg fill="none" height="24" viewBox="0 0 24 24" width="24" xmlns="http://www.w3.org/2000/svg"><g clip-rule="evenodd" fill="#000001" fill-rule="evenodd"><path d="m12.669 4.91086c-.1278-.25204-.3864-.41086-.669-.41086s-.5411.15882-.6689.41086l-1.90916 3.76574-4.27759.60875c-.28486.04054-.52142.24048-.60886.51461-.08744.27414-.01033.57414.19845.77214l3.08253 2.9232-.72657 4.1246c-.04938.2803.06417.5644.29315.7335.22899.169.53394.1939.78729.0642l3.82966-1.9609 3.8297 1.9609c.2534.1297.5583.1048.7873-.0642.229-.1691.3425-.4532.2932-.7335l-.7266-4.1246 3.0825-2.9232c.2088-.198.2859-.498.1985-.77214-.0875-.27413-.324-.47407-.6089-.51461l-4.2776-.60875zm-2.0858 4.79237 1.4168-2.79462 1.4168 2.79462c.1107.21832.321.36887.5633.40337l3.1276.4451-2.2488 2.1325c-.1826.1732-.2662.4265-.2225.6744l.5349 3.0367-2.8295-1.4488c-.2146-.1099-.469-.1099-.6836 0l-2.82949 1.4488.53494-3.0367c.04367-.2479-.03992-.5012-.22255-.6744l-2.24875-2.1325 3.12755-.4451c.2424-.0345.4526-.18505.5633-.40337z"/><path d="m12 1c-6.07513 0-11 4.92487-11 11 0 6.0751 4.92487 11 11 11 6.0751 0 11-4.9249 11-11 0-6.07513-4.9249-11-11-11zm-9.5 11c0-5.24671 4.25329-9.5 9.5-9.5 5.2467 0 9.5 4.25329 9.5 9.5 0 5.2467-4.2533 9.5-9.5 9.5-5.24671 0-9.5-4.2533-9.5-9.5z"/></g></svg>