<svg enable-background="new 0 0 32 32" viewBox="0 0 32 32" xmlns="http://www.w3.org/2000/svg"><path d="m24 31.36h-16c-.199 0-.36-.161-.36-.36v-15.64h-4.64c-.199 0-.36-.161-.36-.36v-9.614c0-.979.615-1.867 1.532-2.209l6.702-2.514c.097-.036.204-.029.294.018.091.048.157.132.182.231l.053.213c.508 2.037 2.442 3.515 4.597 3.515 2.154 0 4.088-1.478 4.598-3.515l.053-.212c.024-.1.091-.184.182-.232.093-.048.2-.056.294-.019l6.702 2.514c.916.342 1.532 1.23 1.532 2.209v9.615c0 .199-.161.36-.36.36h-4.64v15.64c-.001.199-.162.36-.361.36zm-15.64-.72h15.28v-22.64h.721v6.64h4.279v-9.254c0-.68-.427-1.297-1.063-1.535l-6.327-2.374c-.656 2.261-2.834 3.883-5.25 3.883-2.418 0-4.596-1.622-5.248-3.882l-6.328 2.373c-.636.238-1.064.855-1.064 1.535v9.254h4.28v-6.64h.72z"/></svg>