<svg enable-background="new 0 0 32 32" viewBox="0 0 32 32" xmlns="http://www.w3.org/2000/svg"><path d="m31 31.36h-30c-.199 0-.36-.161-.36-.36v-22c0-.199.161-.36.36-.36h12.645l-5.823-3.328.357-.625 6.761 3.863 6.805-6.805.51.509-6.386 6.386h15.131c.199 0 .36.161.36.36v22c0 .199-.161.36-.36.36zm-29.64-.72h29.28v-21.28h-29.28zm23.64-1.28h-22c-.199 0-.36-.161-.36-.36v-18c0-.199.161-.36.36-.36h22c.199 0 .36.161.36.36v18c0 .199-.161.36-.36.36zm-21.64-.72h21.28v-17.28h-21.28zm24.64-11.28c-.75 0-1.36-.61-1.36-1.36s.61-1.36 1.36-1.36 1.36.61 1.36 1.36-.61 1.36-1.36 1.36zm0-2c-.353 0-.64.287-.64.64s.287.64.64.64.64-.287.64-.64-.287-.64-.64-.64zm0-2c-.75 0-1.36-.61-1.36-1.36s.61-1.36 1.36-1.36 1.36.61 1.36 1.36-.61 1.36-1.36 1.36zm0-2c-.353 0-.64.287-.64.64s.287.64.64.64.64-.287.64-.64-.287-.64-.64-.64z"/><path d="m0 0h32v32h-32z" fill="none"/></svg>